<?xml version="1.0" encoding="UTF-8"?><svg id="Layer_2" xmlns="http://www.w3.org/2000/svg" viewBox="0 0 324.55 232.53"><defs><style>.cls-1{fill:none;stroke:#241f20;stroke-miterlimit:10;stroke-width:3px;}.cls-2{fill:#306962;}.cls-2,.cls-3{opacity:.57;}.cls-3{fill:#ef8085;}</style></defs><g id="Layer_1-2"><g><g id="IZI81m"><g><path class="cls-1" d="M92.02,37.42s-9.05-5.61-6.22-17.74c0,0,4.39-4.53,8.1-4.62,0,0,28.07-.43,32.91,.78,0,0,4.34,1.19,4.85,2.02,0,0,2.02,14.95-5.45,21.01"/><path class="cls-1" d="M133.37,93.81c-3.34-.36-15.8,32.4-15.8,32.4-3.34,6.45-5.12,0-5.12,0,1.55-7.34,4.68-29.37,4.68-29.37,7.12-40.5,13.13-38.28,13.13-38.28,0,0,16.59-8.93,60.6-6.05,0,0,38.9-1.92,54.25,2.56,0,0,11.2,0,10.88,23.67,0,0-2.01,7.74,3.15,9.47,0,0,50.85,3.06,56.74,0,0,0,8.23-5.69,7.06-33.57,0,0-.97-21.21-7.23-23.64,0,0-19.03-1.53-55.09,.21-5.31,.26-10.99,.59-17.03,1,0,0-12.12-7.88-19.39-26.26,0,0-9.09-4.65-14.14-4.44,0,0-34.95,0-38.18,.81,0,0-11.31,.81-17.58,10.71,0,0-8.49,16.57-12.32,22.63,0,0-4.85,4.44-15.76,3.23,0,0-50.71-1.82-51.31-2.83,0,0-56.29-4.02-60.63-.17,0,0-11.81,15.67-11.09,49.19l-1.66,15.7s1.48,116.65,2.6,117.55,4.49,10.88,21.87,11.77c0,0,284.03,2.1,287.94,0,0,0,8.52-2.45,7.1-17,0,0,4.22-106.8,.16-114.96"/><path class="cls-1" d="M207.03,215c16.24-2.45,31.82-26.7,31.82-26.7,14.24-17.8,6.68-53.41,6.68-53.41-2.67-22.7-32.04-43.84-32.04-43.84-8.9-8.23-36.72-4.9-36.72-4.9-6.01,1.11-13.13,3.78-13.13,3.78-22.25,2.67-36.5,35.38-36.5,35.38-13.57,14.91,0,56.97,0,56.97,9.35,27.59,47.18,39.17,47.18,39.17,24.03,5.79,46.29-2.67,46.29-2.67,13.8-4.67,29.15-29.15,29.15-29.15,12.24-16.24,10.68-42.5,10.68-42.5,1.78-21.14-11.35-45.17-11.35-45.17-5.79-16.24-32.93-29.37-32.93-29.37-16.24-7.57-39.17-1.34-39.17-1.34-10.9-1.34-43.62,21.59-43.62,21.59l-.78,1.33"/><path class="cls-1" d="M307.69,29.08c4.06-9.21-8.4-16.53-8.4-16.53-19.78-2.71-38.69,1.35-38.69,1.35,0,0-12.14,5.89,0,17.3,0,0,27.45,10.34,45.17-.67"/><path class="cls-1" d="M62.95,63.02s5.59-14.15-15.79-11.84l-14.47-.25s-7.24,6.83-2.3,14.73c0,0,3.62,4.28,14.15,1.64,0,0,46.06,2.04,49.02,.86,0,0,29.94,.46,17.44,16.91h-2.4c-5.69-4.28-79.92-3.29-79.92-3.29,0,0-20.53,.41-23.5,6.43"/><path class="cls-2" d="M150.77,92.85c-25.02,35.06-24.16,79.07-3.26,102.36,32.04,35.7,105.4,16.29,118.92-23.06,12.12-35.25-23.28-87.99-66.25-93.36-22.66-2.83-41.2,8.28-49.42,14.06Z"/></g></g><path class="cls-3" d="M267.13,15.97c-3.11,4.21,3.23,16.5,16.41,18.09,12.28,1.48,22.79-7.29,21.75-12.06-1.64-7.51-33.45-12.41-38.16-6.03Z"/></g></g></svg>