<?xml version="1.0" encoding="UTF-8"?><svg id="Layer_2" xmlns="http://www.w3.org/2000/svg" viewBox="0 0 265.02 566.54"><defs><style>.cls-1{fill:none;stroke:#231f20;stroke-miterlimit:10;stroke-width:3px;}</style></defs><g id="Layer_1-2"><path class="cls-1" d="M66.65,199c-.71-27.43,23.3-31.81,23.3-31.81,0,0,9.26-2.59,14.81-2.59,0,0,19.89,10.1,29.37,32.76l9.48,24.76v4.48c-2.37,.79-42.94,5.53-42.94,5.53-6.32-1.32-6.91-4.16-6.91-4.16-12.56-14.88-21.03-23.75-27.12-28.97-7.12-6.1-10.99-7.22-14.36-7.13-6.25,.17-15,7.25-15,7.25-5.23-.87-35.31,32.7-35.75,33.13s2.62,35.31,3.05,51.88,25.29,119.46,25.29,119.46c-3.92,3.05,39.67,61.47,41.42,62.35s7.13,96.95,7.13,96.95"/><path class="cls-1" d="M186.82,219.75c.79-2.11-10.01-37.67-10.01-37.67-11.33-34.78-27.14-35.04-27.14-35.04-13.17,.26-21.08,3.69-21.08,3.69,0,0-14.54-1.28-10.96,23.33"/><path class="cls-1" d="M143.62,226.6s45.84-12.38,64.81,1.58c0,0,6.97,1.57,15.73,4.08,14.21,4.08,33.12,10.64,34.59,16.99,0,0,8.43,32.14,2.9,47.95,0,0-15.02,64.81-17.12,64.81,0,0-20.02,44.52-21.34,45.05,0,0-11.06,17.91-15.28,21.87,0,0-12.91,12.38-11.33,30.03,0,0,1.32,105.12,4.22,106.17"/><path class="cls-1" d="M178.27,186.94S187.03-4.27,210.98,1.63c0,0,22.14-5.71,18.87,97,0,0,2.03,128.26-5.7,133.63"/><path class="cls-1" d="M35.67,252.77s7.65-5.35,14.53,5.61c0,0,20.64,24.21,24.47,41.29,0,0,11.72,20.39,24.21,17.84,0,0,15.26,2.55,18.21-15.04,0,0-3.68-25.49-6.23-24.98"/><path class="cls-1" d="M97.13,231.02s-12.96,1.79-9.24,23.33c.08,.48,.18,.98,.28,1.48,0,0,10.96,29.31,43.07,19.88,0,0,38.99-4.84,43.83-3.57,0,0,47.66,7.14,49.95,3.31"/><path class="cls-1" d="M126.14,331.77s40.52-57.85,48.17-57.34l2.08-2.1"/><path class="cls-1" d="M200.3,284.59s-16.23-7.47-16.52-11.23"/><path class="cls-1" d="M217.63,285.9s-20.29-8.32-18.3-10.66"/></g></svg>